<svg xmlns="http://www.w3.org/2000/svg" viewBox="0 0 64 64"><defs><style>.cls-1{fill:#b8b5ff;}.cls-2{fill:#242442;}.cls-3{fill:#fff;}</style></defs><g id="Ebene_4" data-name="Ebene 4"><polygon class="cls-1" points="51.24 0.94 44.23 1.88 43.29 4.71 40.1 7.53 40.1 12.65 22.59 15.06 15.06 22.59 13.18 39.53 3.77 41.41 3.77 48.94 15.06 60.23 22.59 60.23 26.35 56.47 41.41 52.71 45.18 48.94 48.94 45.18 50.82 39.53 52.18 28.23 56.47 26.35 62.12 22.59 60.23 15.06 56.47 11.29 52.71 7.53 51.24 0.94"/></g><g id="Ebene_6" data-name="Ebene 6"><rect class="cls-2" x="20.71" y="43.29" width="1.88" height="1.88"/><rect class="cls-2" x="18.82" y="43.29" width="1.88" height="1.88"/><rect class="cls-2" x="20.71" y="41.41" width="1.88" height="1.88"/><rect class="cls-2" x="18.82" y="41.41" width="1.88" height="1.88"/><rect class="cls-2" x="18.82" y="48.94" width="1.88" height="1.88"/><rect class="cls-2" x="18.82" y="47.06" width="1.88" height="1.88"/><rect class="cls-2" x="18.82" y="52.71" width="1.88" height="1.88"/><rect class="cls-2" x="18.82" y="50.82" width="1.88" height="1.88"/><rect class="cls-2" x="16.94" y="52.71" width="1.88" height="1.88"/><rect class="cls-2" x="16.94" y="50.82" width="1.88" height="1.88"/><rect class="cls-2" x="16.94" y="48.94" width="1.88" height="1.88"/><rect class="cls-2" x="15.06" y="54.59" width="1.88" height="1.88"/><rect class="cls-2" x="15.06" y="52.71" width="1.88" height="1.88"/><rect class="cls-2" x="16.94" y="58.35" width="1.88" height="1.88"/><rect class="cls-2" x="16.94" y="56.47" width="1.88" height="1.88"/><rect class="cls-2" x="11.29" y="54.59" width="1.88" height="1.88"/><rect class="cls-2" x="11.29" y="52.71" width="1.88" height="1.88"/><rect class="cls-2" x="13.18" y="54.59" width="1.88" height="1.88"/><rect class="cls-2" x="13.18" y="52.71" width="1.88" height="1.88"/><rect class="cls-2" x="15.06" y="58.35" width="1.88" height="1.88"/><rect class="cls-2" x="15.06" y="56.47" width="1.88" height="1.88"/><rect class="cls-2" x="20.71" y="39.53" width="1.88" height="1.88"/><rect class="cls-2" x="18.82" y="39.53" width="1.88" height="1.88"/><rect class="cls-2" x="20.71" y="37.65" width="1.88" height="1.88"/><rect class="cls-2" x="18.82" y="37.65" width="1.88" height="1.88"/><rect class="cls-2" x="24.47" y="43.29" width="1.88" height="1.88"/><rect class="cls-2" x="22.59" y="43.29" width="1.88" height="1.88"/><rect class="cls-2" x="24.47" y="41.41" width="1.88" height="1.88"/><rect class="cls-2" x="22.59" y="41.41" width="1.88" height="1.88"/><rect class="cls-2" x="28.24" y="43.29" width="1.88" height="1.88"/><rect class="cls-2" x="26.35" y="43.29" width="1.88" height="1.88"/><rect class="cls-2" x="28.24" y="41.41" width="1.88" height="1.88"/><rect class="cls-2" x="26.35" y="41.41" width="1.88" height="1.88"/><rect class="cls-2" x="32" y="43.29" width="1.88" height="1.88"/><rect class="cls-2" x="30.12" y="43.29" width="1.88" height="1.88"/><rect class="cls-2" x="32" y="41.41" width="1.88" height="1.88"/><rect class="cls-2" x="30.12" y="41.41" width="1.88" height="1.88"/><rect class="cls-2" x="32" y="47.06" width="1.88" height="1.88"/><rect class="cls-2" x="30.12" y="47.06" width="1.88" height="1.88"/><rect class="cls-2" x="32" y="45.18" width="1.88" height="1.88"/><rect class="cls-2" x="30.12" y="45.18" width="1.88" height="1.88"/><rect class="cls-2" x="35.76" y="43.29" width="1.88" height="1.88"/><rect class="cls-2" x="33.88" y="43.29" width="1.88" height="1.88"/><rect class="cls-2" x="35.76" y="41.41" width="1.88" height="1.88"/><rect class="cls-2" x="33.88" y="41.41" width="1.88" height="1.88"/><rect class="cls-2" x="39.53" y="43.29" width="1.88" height="1.88"/><rect class="cls-2" x="37.65" y="43.29" width="1.88" height="1.88"/><rect class="cls-2" x="39.53" y="41.41" width="1.88" height="1.88"/><rect class="cls-2" x="37.65" y="41.41" width="1.88" height="1.88"/><rect class="cls-2" x="43.29" y="39.53" width="1.88" height="1.88"/><rect class="cls-2" x="41.41" y="39.53" width="1.88" height="1.88"/><rect class="cls-2" x="43.29" y="37.65" width="1.88" height="1.88"/><rect class="cls-2" x="41.41" y="37.65" width="1.88" height="1.88"/><rect class="cls-2" x="45.18" y="35.76" width="1.88" height="1.88"/><rect class="cls-2" x="43.29" y="35.76" width="1.88" height="1.88"/><rect class="cls-2" x="45.18" y="33.88" width="1.88" height="1.88"/><rect class="cls-2" x="43.29" y="33.88" width="1.88" height="1.88"/><rect class="cls-2" x="45.18" y="32" width="1.88" height="1.88"/><rect class="cls-2" x="43.29" y="32" width="1.88" height="1.88"/><rect class="cls-2" x="45.18" y="30.12" width="1.88" height="1.88"/><rect class="cls-2" x="43.29" y="30.12" width="1.88" height="1.88"/><rect class="cls-2" x="45.18" y="28.24" width="1.88" height="1.88"/><rect class="cls-2" x="43.29" y="28.24" width="1.88" height="1.88"/><rect class="cls-2" x="45.18" y="26.35" width="1.88" height="1.88"/><rect class="cls-2" x="43.29" y="26.35" width="1.88" height="1.88"/><rect class="cls-2" x="45.18" y="24.47" width="1.88" height="1.88"/><rect class="cls-2" x="43.29" y="24.47" width="1.88" height="1.88"/><rect class="cls-2" x="45.18" y="22.59" width="1.88" height="1.88"/><rect class="cls-2" x="43.29" y="22.59" width="1.88" height="1.88"/><rect class="cls-2" x="48.94" y="20.71" width="1.88" height="1.88"/><rect class="cls-2" x="47.06" y="20.71" width="1.88" height="1.88"/><rect class="cls-2" x="48.94" y="18.82" width="1.88" height="1.88"/><rect class="cls-2" x="47.06" y="18.82" width="1.88" height="1.88"/><rect class="cls-2" x="52.71" y="20.71" width="1.88" height="1.88"/><rect class="cls-2" x="50.82" y="20.71" width="1.88" height="1.88"/><rect class="cls-2" x="52.71" y="18.82" width="1.88" height="1.88"/><rect class="cls-2" x="50.82" y="18.82" width="1.88" height="1.88"/><rect class="cls-2" x="56.47" y="16.94" width="1.88" height="1.88"/><rect class="cls-2" x="54.59" y="16.94" width="1.88" height="1.88"/><rect class="cls-2" x="52.71" y="16.94" width="1.88" height="1.88"/><rect class="cls-2" x="48.94" y="16.94" width="1.88" height="1.88"/><rect class="cls-2" x="47.06" y="15.06" width="1.88" height="1.88"/><rect class="cls-2" x="45.18" y="16.94" width="1.88" height="1.88"/><rect class="cls-2" x="39.53" y="15.06" width="1.88" height="1.88"/><rect class="cls-2" x="41.41" y="15.06" width="1.88" height="1.88"/><rect class="cls-2" x="39.53" y="13.18" width="1.88" height="1.88"/><rect class="cls-2" x="41.41" y="13.18" width="1.88" height="1.88"/><rect class="cls-2" x="39.53" y="11.29" width="1.88" height="1.88"/><rect class="cls-2" x="41.41" y="11.29" width="1.88" height="1.88"/><rect class="cls-2" x="39.53" y="9.41" width="1.88" height="1.88"/><rect class="cls-2" x="41.41" y="9.41" width="1.88" height="1.88"/><rect class="cls-2" x="39.53" y="7.53" width="1.88" height="1.88"/><rect class="cls-2" x="41.41" y="7.53" width="1.88" height="1.88"/><rect class="cls-2" x="45.18" y="13.18" width="1.88" height="1.88"/><rect class="cls-2" x="54.59" y="18.82" width="1.88" height="1.88"/><rect class="cls-2" x="54.59" y="20.71" width="1.88" height="1.88"/><rect class="cls-2" x="56.47" y="15.06" width="1.88" height="1.88"/><rect class="cls-2" x="54.59" y="15.06" width="1.88" height="1.88"/><rect class="cls-2" x="35.76" y="47.06" width="1.88" height="1.88"/><rect class="cls-2" x="33.88" y="47.06" width="1.88" height="1.88"/><rect class="cls-2" x="35.76" y="45.18" width="1.88" height="1.88"/><rect class="cls-2" x="33.88" y="45.18" width="1.88" height="1.88"/><rect class="cls-2" x="28.24" y="47.06" width="1.88" height="1.88"/><rect class="cls-2" x="26.35" y="47.06" width="1.88" height="1.88"/><rect class="cls-2" x="28.24" y="45.18" width="1.88" height="1.88"/><rect class="cls-2" x="26.35" y="45.18" width="1.88" height="1.88"/><rect class="cls-2" x="24.47" y="47.06" width="1.88" height="1.88"/><rect class="cls-2" x="22.59" y="47.06" width="1.88" height="1.88"/><rect class="cls-2" x="24.47" y="45.18" width="1.88" height="1.88"/><rect class="cls-2" x="22.59" y="45.18" width="1.88" height="1.88"/><rect class="cls-2" x="24.47" y="39.53" width="1.88" height="1.88"/><rect class="cls-2" x="22.59" y="39.53" width="1.88" height="1.88"/><rect class="cls-2" x="24.47" y="37.65" width="1.88" height="1.88"/><rect class="cls-2" x="22.59" y="37.65" width="1.88" height="1.88"/><rect class="cls-2" x="24.47" y="35.76" width="1.88" height="1.88"/><rect class="cls-2" x="22.59" y="35.76" width="1.88" height="1.88"/><rect class="cls-2" x="24.47" y="33.88" width="1.88" height="1.88"/><rect class="cls-2" x="22.59" y="33.88" width="1.88" height="1.88"/><rect class="cls-2" x="24.47" y="32" width="1.88" height="1.88"/><rect class="cls-2" x="22.59" y="32" width="1.88" height="1.88"/><rect class="cls-2" x="24.47" y="30.12" width="1.88" height="1.88"/><rect class="cls-2" x="22.59" y="30.12" width="1.88" height="1.88"/><rect class="cls-2" x="28.24" y="28.24" width="1.88" height="1.88"/><rect class="cls-2" x="26.35" y="28.24" width="1.88" height="1.88"/><rect class="cls-2" x="26.35" y="30.12" width="1.88" height="1.88"/><rect class="cls-2" x="28.24" y="26.35" width="1.88" height="1.88"/><rect class="cls-2" x="26.35" y="26.35" width="1.88" height="1.88"/><rect class="cls-2" x="32" y="28.24" width="1.88" height="1.88"/><rect class="cls-2" x="30.12" y="28.24" width="1.88" height="1.88"/><rect class="cls-2" x="32" y="26.35" width="1.88" height="1.88"/><rect class="cls-2" x="30.12" y="26.35" width="1.88" height="1.88"/><rect class="cls-2" x="20.71" y="35.76" width="1.88" height="1.88"/><rect class="cls-2" x="18.82" y="35.76" width="1.88" height="1.88"/><rect class="cls-2" x="20.71" y="33.88" width="1.88" height="1.88"/><rect class="cls-2" x="18.82" y="33.88" width="1.88" height="1.88"/><rect class="cls-2" x="20.71" y="32" width="1.88" height="1.88"/><rect class="cls-2" x="18.82" y="32" width="1.88" height="1.88"/><rect class="cls-2" x="20.71" y="30.12" width="1.88" height="1.88"/><rect class="cls-2" x="18.82" y="30.12" width="1.88" height="1.88"/></g><g id="Ebene_5" data-name="Ebene 5"><rect class="cls-3" x="13.18" y="28.24" width="1.88" height="1.88"/><rect class="cls-3" x="11.29" y="28.24" width="1.88" height="1.88"/><rect class="cls-3" x="13.18" y="26.35" width="1.88" height="1.88"/><rect class="cls-3" x="11.29" y="26.35" width="1.88" height="1.88"/><rect class="cls-3" x="13.18" y="24.47" width="1.88" height="1.88"/><rect class="cls-3" x="11.29" y="24.47" width="1.88" height="1.88"/><rect class="cls-3" x="13.18" y="22.59" width="1.88" height="1.88"/><rect class="cls-3" x="11.29" y="22.59" width="1.88" height="1.88"/><rect class="cls-3" x="16.94" y="20.71" width="1.88" height="1.88"/><rect class="cls-3" x="15.06" y="20.71" width="1.88" height="1.88"/><rect class="cls-3" x="16.94" y="18.82" width="1.88" height="1.88"/><rect class="cls-3" x="15.06" y="18.82" width="1.88" height="1.88"/><rect class="cls-3" x="20.71" y="16.94" width="1.88" height="1.88"/><rect class="cls-3" x="18.82" y="16.94" width="1.88" height="1.88"/><rect class="cls-3" x="20.71" y="15.06" width="1.88" height="1.88"/><rect class="cls-3" x="18.82" y="15.06" width="1.88" height="1.88"/><rect class="cls-3" x="24.47" y="13.18" width="1.88" height="1.88"/><rect class="cls-3" x="22.59" y="13.18" width="1.88" height="1.88"/><rect class="cls-3" x="24.47" y="11.29" width="1.88" height="1.88"/><rect class="cls-3" x="22.59" y="11.29" width="1.88" height="1.88"/><rect class="cls-3" x="28.24" y="13.18" width="1.88" height="1.88"/><rect class="cls-3" x="26.35" y="13.18" width="1.88" height="1.88"/><rect class="cls-3" x="28.24" y="11.29" width="1.88" height="1.88"/><rect class="cls-3" x="26.35" y="11.29" width="1.88" height="1.88"/><rect class="cls-3" x="32" y="13.18" width="1.88" height="1.88"/><rect class="cls-3" x="30.12" y="13.18" width="1.88" height="1.88"/><rect class="cls-3" x="32" y="11.29" width="1.88" height="1.88"/><rect class="cls-3" x="30.12" y="11.29" width="1.88" height="1.88"/><rect class="cls-3" x="35.76" y="13.18" width="1.88" height="1.88"/><rect class="cls-3" x="33.88" y="13.18" width="1.88" height="1.88"/><rect class="cls-3" x="35.76" y="11.29" width="1.88" height="1.88"/><rect class="cls-3" x="33.88" y="11.29" width="1.88" height="1.88"/><rect class="cls-3" x="39.53" y="13.18" width="1.88" height="1.88"/><rect class="cls-3" x="37.65" y="13.18" width="1.88" height="1.88"/><rect class="cls-3" x="39.53" y="11.29" width="1.88" height="1.88"/><rect class="cls-3" x="37.65" y="11.29" width="1.88" height="1.88"/><rect class="cls-3" x="39.53" y="9.41" width="1.88" height="1.88"/><rect class="cls-3" x="37.65" y="9.41" width="1.88" height="1.88"/><rect class="cls-3" x="39.53" y="7.53" width="1.88" height="1.88"/><rect class="cls-3" x="37.65" y="7.53" width="1.88" height="1.88"/><rect class="cls-3" x="39.53" y="5.65" width="1.88" height="1.88"/><rect class="cls-3" x="37.65" y="5.65" width="1.88" height="1.88"/><rect class="cls-3" x="39.53" y="3.76" width="1.88" height="1.88"/><rect class="cls-3" x="37.65" y="3.76" width="1.88" height="1.88"/><rect class="cls-3" x="43.29" y="5.65" width="1.88" height="1.88"/><rect class="cls-3" x="41.41" y="5.65" width="1.88" height="1.88"/><rect class="cls-3" x="43.29" y="3.76" width="1.88" height="1.88"/><rect class="cls-3" x="41.41" y="3.76" width="1.88" height="1.88"/><rect class="cls-3" x="43.29" y="1.88" width="1.88" height="1.88"/><rect class="cls-3" x="41.41" y="1.88" width="1.88" height="1.88"/><rect class="cls-3" x="43.29" width="1.88" height="1.88"/><rect class="cls-3" x="41.41" width="1.88" height="1.88"/><rect class="cls-3" x="47.06" y="1.88" width="1.88" height="1.88"/><rect class="cls-3" x="45.18" y="1.88" width="1.88" height="1.88"/><rect class="cls-3" x="47.06" width="1.88" height="1.88"/><rect class="cls-3" x="45.18" width="1.88" height="1.88"/><rect class="cls-3" x="50.82" y="1.88" width="1.88" height="1.88"/><rect class="cls-3" x="48.94" y="1.88" width="1.88" height="1.88"/><rect class="cls-3" x="50.82" width="1.88" height="1.88"/><rect class="cls-3" x="48.94" width="1.88" height="1.88"/><rect class="cls-3" x="50.82" y="5.65" width="1.88" height="1.88"/><rect class="cls-3" x="48.94" y="5.65" width="1.88" height="1.88"/><rect class="cls-3" x="50.82" y="3.76" width="1.88" height="1.88"/><rect class="cls-3" x="48.94" y="3.76" width="1.88" height="1.88"/><rect class="cls-3" x="54.59" y="9.41" width="1.88" height="1.88"/><rect class="cls-3" x="52.71" y="9.41" width="1.88" height="1.88"/><rect class="cls-3" x="54.59" y="7.53" width="1.88" height="1.88"/><rect class="cls-3" x="52.71" y="7.53" width="1.88" height="1.88"/><rect class="cls-3" x="58.35" y="13.18" width="1.88" height="1.88"/><rect class="cls-3" x="56.47" y="13.18" width="1.88" height="1.88"/><rect class="cls-3" x="58.35" y="11.29" width="1.88" height="1.88"/><rect class="cls-3" x="56.47" y="11.29" width="1.88" height="1.88"/><rect class="cls-3" x="62.12" y="16.94" width="1.88" height="1.88"/><rect class="cls-3" x="60.24" y="16.94" width="1.88" height="1.88"/><rect class="cls-3" x="62.12" y="15.06" width="1.88" height="1.88"/><rect class="cls-3" x="60.24" y="15.06" width="1.88" height="1.88"/><rect class="cls-3" x="62.12" y="20.71" width="1.88" height="1.88"/><rect class="cls-3" x="60.24" y="20.71" width="1.88" height="1.88"/><rect class="cls-3" x="62.12" y="18.82" width="1.88" height="1.88"/><rect class="cls-3" x="60.24" y="18.82" width="1.88" height="1.88"/><rect class="cls-3" x="62.12" y="24.47" width="1.88" height="1.88"/><rect class="cls-3" x="60.24" y="24.47" width="1.88" height="1.88"/><rect class="cls-3" x="62.12" y="22.59" width="1.88" height="1.88"/><rect class="cls-3" x="60.24" y="22.59" width="1.88" height="1.88"/><rect class="cls-3" x="58.35" y="24.47" width="1.88" height="1.88"/><rect class="cls-3" x="56.47" y="24.47" width="1.88" height="1.88"/><rect class="cls-3" x="58.35" y="22.59" width="1.88" height="1.88"/><rect class="cls-3" x="56.47" y="22.59" width="1.88" height="1.88"/><rect class="cls-3" x="54.59" y="28.24" width="1.88" height="1.88"/><rect class="cls-3" x="52.71" y="28.24" width="1.88" height="1.88"/><rect class="cls-3" x="54.59" y="26.35" width="1.88" height="1.88"/><rect class="cls-3" x="52.71" y="26.35" width="1.88" height="1.88"/><rect class="cls-3" x="50.82" y="28.24" width="1.88" height="1.88"/><rect class="cls-3" x="48.94" y="28.24" width="1.88" height="1.88"/><rect class="cls-3" x="50.82" y="26.35" width="1.88" height="1.88"/><rect class="cls-3" x="48.94" y="26.35" width="1.88" height="1.88"/><rect class="cls-3" x="50.82" y="32" width="1.88" height="1.88"/><rect class="cls-3" x="48.94" y="32" width="1.88" height="1.88"/><rect class="cls-3" x="50.82" y="30.12" width="1.88" height="1.88"/><rect class="cls-3" x="48.94" y="30.12" width="1.88" height="1.88"/><rect class="cls-3" x="50.82" y="35.76" width="1.88" height="1.88"/><rect class="cls-3" x="48.94" y="35.76" width="1.88" height="1.88"/><rect class="cls-3" x="50.82" y="33.88" width="1.88" height="1.88"/><rect class="cls-3" x="48.94" y="33.88" width="1.88" height="1.88"/><rect class="cls-3" x="50.82" y="39.53" width="1.88" height="1.88"/><rect class="cls-3" x="48.94" y="39.53" width="1.88" height="1.88"/><rect class="cls-3" x="50.82" y="37.65" width="1.88" height="1.88"/><rect class="cls-3" x="48.94" y="37.65" width="1.88" height="1.88"/><rect class="cls-3" x="50.82" y="43.29" width="1.88" height="1.88"/><rect class="cls-3" x="48.94" y="43.29" width="1.88" height="1.88"/><rect class="cls-3" x="50.82" y="41.41" width="1.88" height="1.88"/><rect class="cls-3" x="48.94" y="41.41" width="1.88" height="1.88"/><rect class="cls-3" x="47.06" y="47.06" width="1.88" height="1.88"/><rect class="cls-3" x="45.18" y="47.06" width="1.88" height="1.88"/><rect class="cls-3" x="47.06" y="45.18" width="1.88" height="1.88"/><rect class="cls-3" x="45.18" y="45.18" width="1.88" height="1.88"/><rect class="cls-3" x="43.29" y="50.82" width="1.88" height="1.88"/><rect class="cls-3" x="41.41" y="50.82" width="1.88" height="1.88"/><rect class="cls-3" x="43.29" y="48.94" width="1.88" height="1.88"/><rect class="cls-3" x="41.41" y="48.94" width="1.88" height="1.88"/><rect class="cls-3" x="39.53" y="54.59" width="1.88" height="1.88"/><rect class="cls-3" x="37.65" y="54.59" width="1.88" height="1.88"/><rect class="cls-3" x="39.53" y="52.71" width="1.88" height="1.88"/><rect class="cls-3" x="37.65" y="52.71" width="1.88" height="1.88"/><rect class="cls-3" x="35.76" y="54.59" width="1.88" height="1.88"/><rect class="cls-3" x="33.88" y="54.59" width="1.88" height="1.88"/><rect class="cls-3" x="35.76" y="52.71" width="1.88" height="1.88"/><rect class="cls-3" x="33.88" y="52.71" width="1.88" height="1.88"/><rect class="cls-3" x="32" y="54.59" width="1.88" height="1.88"/><rect class="cls-3" x="30.12" y="54.59" width="1.88" height="1.88"/><rect class="cls-3" x="32" y="52.71" width="1.88" height="1.88"/><rect class="cls-3" x="30.12" y="52.71" width="1.88" height="1.88"/><rect class="cls-3" x="28.24" y="54.59" width="1.88" height="1.88"/><rect class="cls-3" x="26.35" y="54.59" width="1.88" height="1.88"/><rect class="cls-3" x="28.24" y="52.71" width="1.88" height="1.88"/><rect class="cls-3" x="26.35" y="52.71" width="1.88" height="1.88"/><rect class="cls-3" x="24.47" y="54.59" width="1.88" height="1.88"/><rect class="cls-3" x="22.59" y="54.59" width="1.88" height="1.88"/><rect class="cls-3" x="24.47" y="52.71" width="1.88" height="1.88"/><rect class="cls-3" x="22.59" y="52.71" width="1.88" height="1.88"/><rect class="cls-3" x="24.47" y="58.35" width="1.88" height="1.88"/><rect class="cls-3" x="22.59" y="58.35" width="1.88" height="1.88"/><rect class="cls-3" x="24.47" y="56.47" width="1.88" height="1.88"/><rect class="cls-3" x="22.59" y="56.47" width="1.88" height="1.88"/><rect class="cls-3" x="20.71" y="62.12" width="1.88" height="1.88"/><rect class="cls-3" x="18.82" y="62.12" width="1.88" height="1.88"/><rect class="cls-3" x="20.71" y="60.24" width="1.88" height="1.88"/><rect class="cls-3" x="18.82" y="60.24" width="1.88" height="1.88"/><rect class="cls-3" x="16.94" y="62.12" width="1.88" height="1.88"/><rect class="cls-3" x="15.06" y="62.12" width="1.88" height="1.88"/><rect class="cls-3" x="16.94" y="60.24" width="1.88" height="1.88"/><rect class="cls-3" x="15.06" y="60.24" width="1.88" height="1.88"/><rect class="cls-3" x="13.18" y="58.35" width="1.88" height="1.88"/><rect class="cls-3" x="11.29" y="58.35" width="1.88" height="1.88"/><rect class="cls-3" x="13.18" y="56.47" width="1.88" height="1.88"/><rect class="cls-3" x="11.29" y="56.47" width="1.88" height="1.88"/><rect class="cls-3" x="9.41" y="54.59" width="1.88" height="1.88"/><rect class="cls-3" x="7.53" y="54.59" width="1.88" height="1.88"/><rect class="cls-3" x="9.41" y="52.71" width="1.88" height="1.88"/><rect class="cls-3" x="7.53" y="52.71" width="1.88" height="1.88"/><rect class="cls-3" x="5.65" y="50.82" width="1.88" height="1.88"/><rect class="cls-3" x="3.76" y="50.82" width="1.88" height="1.88"/><rect class="cls-3" x="5.65" y="48.94" width="1.88" height="1.88"/><rect class="cls-3" x="3.76" y="48.94" width="1.88" height="1.88"/><rect class="cls-3" x="1.88" y="47.06" width="1.88" height="1.88"/><rect class="cls-3" y="47.06" width="1.88" height="1.88"/><rect class="cls-3" x="1.88" y="45.18" width="1.88" height="1.88"/><rect class="cls-3" y="45.18" width="1.88" height="1.88"/><rect class="cls-3" x="1.88" y="43.29" width="1.88" height="1.88"/><rect class="cls-3" y="43.29" width="1.88" height="1.88"/><rect class="cls-3" x="1.88" y="41.41" width="1.88" height="1.88"/><rect class="cls-3" y="41.41" width="1.88" height="1.88"/><rect class="cls-3" x="5.65" y="39.53" width="1.88" height="1.88"/><rect class="cls-3" x="3.76" y="39.53" width="1.88" height="1.88"/><rect class="cls-3" x="5.65" y="37.65" width="1.88" height="1.88"/><rect class="cls-3" x="3.76" y="37.65" width="1.88" height="1.88"/><rect class="cls-3" x="9.41" y="39.53" width="1.88" height="1.88"/><rect class="cls-3" x="7.53" y="39.53" width="1.88" height="1.88"/><rect class="cls-3" x="9.41" y="37.65" width="1.88" height="1.88"/><rect class="cls-3" x="7.53" y="37.65" width="1.88" height="1.88"/><rect class="cls-3" x="13.18" y="39.53" width="1.88" height="1.88"/><rect class="cls-3" x="11.29" y="39.53" width="1.88" height="1.88"/><rect class="cls-3" x="13.18" y="37.65" width="1.88" height="1.88"/><rect class="cls-3" x="11.29" y="37.65" width="1.88" height="1.88"/><rect class="cls-3" x="13.18" y="35.76" width="1.88" height="1.88"/><rect class="cls-3" x="11.29" y="35.76" width="1.88" height="1.88"/><rect class="cls-3" x="13.18" y="33.88" width="1.88" height="1.88"/><rect class="cls-3" x="11.29" y="33.88" width="1.88" height="1.88"/><rect class="cls-3" x="13.18" y="32" width="1.88" height="1.88"/><rect class="cls-3" x="11.29" y="32" width="1.88" height="1.88"/><rect class="cls-3" x="13.18" y="30.12" width="1.88" height="1.88"/><rect class="cls-3" x="11.29" y="30.12" width="1.88" height="1.88"/></g><g id="Ebene_2" data-name="Ebene 2"><rect class="cls-3" x="20.71" y="32" width="1.88" height="1.88"/><rect class="cls-3" x="18.82" y="32" width="1.88" height="1.88"/><rect class="cls-3" x="20.71" y="30.12" width="1.88" height="1.88"/><rect class="cls-3" x="18.82" y="30.12" width="1.88" height="1.88"/><rect class="cls-3" x="20.71" y="30.12" width="1.88" height="1.88"/><rect class="cls-3" x="18.82" y="30.12" width="1.88" height="1.88"/><rect class="cls-3" x="20.71" y="28.24" width="1.88" height="1.88"/><rect class="cls-3" x="18.82" y="28.24" width="1.88" height="1.88"/><rect class="cls-3" x="20.71" y="28.24" width="1.88" height="1.88"/><rect class="cls-3" x="18.82" y="28.24" width="1.88" height="1.88"/><rect class="cls-3" x="20.71" y="26.35" width="1.88" height="1.88"/><rect class="cls-3" x="18.82" y="26.35" width="1.88" height="1.88"/><rect class="cls-3" x="24.47" y="28.24" width="1.88" height="1.88"/><rect class="cls-3" x="22.59" y="28.24" width="1.88" height="1.88"/><rect class="cls-3" x="24.47" y="26.35" width="1.88" height="1.88"/><rect class="cls-3" x="22.59" y="26.35" width="1.88" height="1.88"/><rect class="cls-3" x="24.47" y="24.47" width="1.88" height="1.88"/><rect class="cls-3" x="22.59" y="24.47" width="1.88" height="1.88"/><rect class="cls-3" x="24.47" y="22.59" width="1.88" height="1.88"/><rect class="cls-3" x="22.59" y="22.59" width="1.88" height="1.88"/><rect class="cls-3" x="28.24" y="24.47" width="1.88" height="1.88"/><rect class="cls-3" x="26.35" y="24.47" width="1.88" height="1.88"/><rect class="cls-3" x="28.24" y="22.59" width="1.88" height="1.88"/><rect class="cls-3" x="26.35" y="22.59" width="1.88" height="1.88"/><rect class="cls-3" x="32" y="24.47" width="1.88" height="1.88"/><rect class="cls-3" x="33.88" y="26.35" width="1.88" height="1.88"/><rect class="cls-3" x="35.76" y="28.24" width="1.88" height="1.88"/><rect class="cls-3" x="35.76" y="30.12" width="1.88" height="1.88"/><rect class="cls-1" x="33.88" y="32" width="1.88" height="1.88"/><rect class="cls-3" x="35.76" y="26.35" width="1.88" height="1.88"/><rect class="cls-3" x="33.88" y="24.47" width="1.88" height="1.88"/><rect class="cls-3" x="30.12" y="24.47" width="1.88" height="1.88"/><rect class="cls-3" x="32" y="22.59" width="1.88" height="1.88"/><rect class="cls-3" x="30.12" y="22.59" width="1.88" height="1.88"/></g></svg>