<?xml version="1.0" standalone="no"?>
<!DOCTYPE svg PUBLIC "-//W3C//DTD SVG 20010904//EN"
 "http://www.w3.org/TR/2001/REC-SVG-20010904/DTD/svg10.dtd">
<svg version="1.0" xmlns="http://www.w3.org/2000/svg"
 width="500.000000pt" height="500.000000pt" viewBox="0 0 500.000000 500.000000"
 preserveAspectRatio="xMidYMid meet">
<metadata>
Created by potrace 1.14, written by Peter Selinger 2001-2017
</metadata>
<g transform="translate(0.000000,500.000000) scale(0.100000,-0.100000)"
fill="#000000" stroke="none">
<path d="M0 2500 l0 -2500 2500 0 2500 0 0 2500 0 2500 -2500 0 -2500 0 0
-2500z m1254 1721 c86 -30 172 -95 306 -230 142 -142 247 -271 416 -508 102
-143 119 -163 147 -167 120 -18 392 -25 550 -15 254 15 226 5 304 117 360 521
663 812 844 812 43 0 92 -23 117 -55 32 -40 88 -223 116 -377 54 -296 78 -581
81 -980 l2 -307 34 -43 c98 -120 161 -241 196 -376 21 -83 24 -112 19 -198
l-5 -102 65 -32 c36 -18 64 -34 62 -36 -2 -2 -26 8 -53 21 -28 13 -57 25 -65
25 -10 0 -23 -23 -37 -62 -12 -35 -24 -70 -27 -78 -5 -11 13 -24 68 -48 111
-50 188 -124 185 -179 0 -10 -5 -4 -10 14 -13 45 -88 107 -174 142 -40 17 -78
31 -82 31 -5 0 -20 -19 -33 -41 -12 -23 -41 -65 -64 -93 -63 -77 -63 -72 6
-107 202 -102 413 -238 510 -331 48 -45 51 -50 13 -18 -104 87 -326 219 -536
317 l-85 40 -404 -274 c-346 -234 -408 -273 -440 -273 -20 0 -204 -9 -409 -20
l-373 -20 -366 20 c-202 11 -385 20 -407 20 -36 0 -82 29 -454 281 l-413 281
-52 -22 c-134 -57 -410 -215 -503 -288 -67 -53 -87 -62 -34 -15 109 94 273
202 456 299 l103 55 -49 65 c-27 36 -58 83 -69 105 -23 45 -31 46 -97 18 -74
-31 -140 -77 -162 -112 -11 -18 -21 -26 -21 -19 0 28 84 102 158 139 42 21 79
39 80 40 5 2 -40 146 -48 156 -4 4 -29 -1 -56 -13 -32 -13 -42 -15 -29 -5 10
8 34 21 52 27 l33 12 -6 76 c-13 178 61 385 205 566 l46 58 1 286 c3 527 55
972 146 1248 37 111 61 151 108 174 44 23 68 22 134 -1z"/>
<path d="M1440 3756 c0 -2 13 -32 29 -67 39 -86 76 -205 116 -374 25 -103 34
-129 34 -99 1 62 -26 194 -60 291 -46 129 -119 283 -119 249z"/>
<path d="M3458 3653 c-68 -147 -118 -311 -124 -405 l-5 -83 45 172 c40 155 71
252 120 366 9 20 14 37 10 37 -3 0 -24 -39 -46 -87z"/>
<path d="M1366 3623 c64 -94 109 -206 160 -397 l34 -131 -5 73 c-8 90 -26 162
-66 258 -31 73 -116 215 -138 228 -6 4 0 -10 15 -31z"/>
<path d="M3555 3576 c-91 -127 -151 -285 -160 -421 -5 -68 -4 -65 34 77 40
150 95 281 150 362 18 25 30 46 27 46 -3 0 -26 -29 -51 -64z"/>
<path d="M1345 3415 c45 -56 98 -157 140 -268 10 -26 19 -46 21 -44 7 7 -26
138 -44 174 -29 55 -97 143 -134 173 -27 20 -24 15 17 -35z"/>
<path d="M3607 3410 c-88 -80 -146 -185 -161 -290 -6 -39 0 -30 38 58 58 133
86 180 142 236 61 61 49 59 -19 -4z"/>
<path d="M1721 2719 c-99 -19 -200 -100 -241 -193 -78 -175 22 -397 202 -451
162 -48 332 25 405 173 25 50 28 68 28 147 -1 78 -4 97 -28 143 -51 98 -129
158 -235 181 -59 12 -69 12 -131 0z"/>
<path d="M3284 2720 c-99 -20 -187 -89 -235 -182 -34 -65 -38 -194 -9 -271 26
-69 94 -143 165 -177 43 -21 64 -25 145 -25 80 0 103 4 143 24 62 30 129 97
158 158 34 69 38 188 10 264 -56 147 -225 241 -377 209z"/>
<path d="M2210 1865 c0 -35 68 -98 148 -137 59 -29 77 -33 147 -33 68 0 89 4
139 29 72 35 159 116 154 143 -5 25 -69 29 -126 7 -24 -9 -73 -39 -109 -66
l-65 -49 -40 37 c-55 49 -153 94 -205 94 -39 0 -43 -2 -43 -25z"/>
<path d="M2160 1620 c-13 -8 -12 -16 9 -55 51 -98 143 -175 207 -175 35 0 91
28 109 53 l15 21 24 -24 c38 -35 109 -38 165 -8 49 26 72 53 96 111 15 35 14
37 -4 37 -13 0 -28 -15 -43 -42 -57 -104 -176 -119 -217 -28 l-18 40 -22 -40
c-33 -58 -68 -83 -112 -77 -62 8 -103 49 -184 181 -7 11 -14 13 -25 6z"/>
</g>
</svg>
