<svg xmlns="http://www.w3.org/2000/svg" viewBox="0 0 755.28 693.41"><defs><style>.cls-1{fill:#75f2a7;}.cls-2{fill:#cbf7dd;}.cls-3{fill:#ac55e5;}.cls-4{fill:#57ce87;}.cls-5{fill:none;stroke:#ac55e5;stroke-miterlimit:10;stroke-width:9px;}</style></defs><g id="Ebene_2" data-name="Ebene 2"><path class="cls-1" d="M7525.27,7426.74l-162.24,110-163.53,8.67L7036,7536.72l-162.24-110,0,0c-1.75-1.54-64.26-57.22-49.26-138.31h0c5.2-28.1,19.72-59.26,49.29-92.26-5-74.06,1.69-258.58,37-328.75,0,0,36.57-84.21,203.72,163.88l3.33,5c15,.73,47.45,2.63,81.7,5.5,34.25-2.87,66.73-4.77,81.7-5.5,170-254.17,207.05-168.84,207.05-168.84,35.33,70.17,42.07,254.69,37,328.75C7641.41,7325.74,7525.27,7426.74,7525.27,7426.74Z" transform="translate(-6822.11 -6851.98)"/><path class="cls-2" d="M7575.07,7288.4h0c-200.06,146.78-316.32,34.78-316.32,34.78l-61.09,35.55-56.89-35.55s-116.26,112-316.32-34.78h0c-15,81.09,47.51,136.77,49.26,138.31l0,0,162.24,110,163.53,8.67,164-8.67,162.24-110,0,0C7527.56,7425.17,7590.07,7369.49,7575.07,7288.4Z" transform="translate(-6822.11 -6851.98)"/><ellipse class="cls-3" cx="7171.56" cy="7340.94" rx="12.44" ry="35.56" transform="translate(-9593.77 3029.25) rotate(-60)"/><ellipse class="cls-3" cx="7228.44" cy="7340.94" rx="35.56" ry="12.44" transform="translate(-9524.15 -2254.25) rotate(-30)"/><path class="cls-4" d="M7117.8,7036.22l-20.71-.76c-45.33-58.66-129-173.63-150.81-172.29s-19.11,290.61-19.11,290.61l-53.44,42.35c-5-74.06,1.69-258.58,37-328.75C6910.75,6867.38,6943.17,6776.5,7117.8,7036.22Z" transform="translate(-6822.11 -6851.98)"/><path class="cls-4" d="M7281.2,7036.22l20.88-1.28c45.33-58.66,129.09-175.11,150.87-173.77s19.11,290.61,19.11,290.61l53.44,42.35c5.05-74.06-1.69-258.58-37-328.75C7488.48,6865.38,7448.35,6788.13,7281.2,7036.22Z" transform="translate(-6822.11 -6851.98)"/><path class="cls-5" d="M7131.76,7374.72c21.37,46.67,51,55.71,67.74,24.45,7.67,21.23,46.33,21.33,55.67-16" transform="translate(-6822.11 -6851.98)"/><path class="cls-3" d="M7000.87,7081c-1.94-4-3.54-8.05-5-12.09q-1.32-3-2.53-5.95l-1.2-3c-.4-1-.72-2-1.21-3-.87-1.95-1.73-3.89-2.53-5.87-.41-1-.78-2-1.17-3l-1.3-2.91-2.55-5.87c-.94-1.91-2-3.75-3-5.63-.52-.93-1-1.89-1.56-2.8l-1.74-2.67-1.75-2.68c-.3-.44-.57-.9-.89-1.33l-1-1.27-1.93-2.55a29.9,29.9,0,0,0-2-2.51c-1.42-1.58-2.78-3.24-4.27-4.77a76.16,76.16,0,0,0-9.6-8.51,51.21,51.21,0,0,0-11.12-6.44l.17-.59a47.62,47.62,0,0,1,12,5.47,78.6,78.6,0,0,1,10.67,7.86c1.66,1.46,3.19,3.06,4.8,4.59.83.75,1.51,1.63,2.26,2.45l2.2,2.49,1.09,1.26c.36.42.67.88,1,1.32l2,2.67,2,2.67c.64.91,1.2,1.86,1.81,2.79,1.18,1.88,2.42,3.73,3.59,5.62l3.24,5.82c.52,1,1.08,2,1.57,3s.88,2,1.3,3.06c.85,2.05,1.63,4.12,2.4,6.2s1.23,4.26,1.8,6.39,1.09,4.29,1.54,6.45a127,127,0,0,1,1.49,13.17Z" transform="translate(-6822.11 -6851.98)"/><path class="cls-3" d="M7010.57,7080.92c-.79-2.78-1.43-5.56-2.07-8.32l-.91-4.16-.42-2.07-.53-2.06c-.73-2.73-1.39-5.47-2-8.21-.34-1.36-.59-2.74-1-4.1l-1.15-4.05c-.73-2.71-1.44-5.42-2.09-8.15-.81-2.68-1.57-5.38-2.3-8.08-.36-1.36-.7-2.72-1.08-4.08l-1.29-4c-.89-2.66-1.69-5.36-2.7-8l-3.12-7.84c-.49-1.32-1.13-2.58-1.7-3.86l-1.76-3.84c-1.11-2.59-2.44-5.07-3.72-7.58-.65-1.26-1.26-2.52-1.94-3.76l-2.09-3.67a153.28,153.28,0,0,0-19.57-27.62l.42-.45a117.46,117.46,0,0,1,11.64,12.59c1.76,2.25,3.58,4.47,5.21,6.82l2.52,3.48c.82,1.18,1.58,2.39,2.38,3.58a198.87,198.87,0,0,1,16.26,30.32c.63,1.29,1.1,2.66,1.64,4l1.62,4,1.63,4c.49,1.35,1,2.72,1.42,4.08.92,2.73,1.82,5.47,2.66,8.23.69,2.8,1.3,5.61,1.91,8.43l.86,4.23c.26,1.42.41,2.85.61,4.28.36,2.86.71,5.71,1,8.57l.21,2.14.08,2.16.09,4.32c0,2.87.05,5.74-.08,8.61Z" transform="translate(-6822.11 -6851.98)"/><path class="cls-3" d="M7023.53,7069.29c-.82-3.12-1.49-6.25-2.16-9.37l-.95-4.68c-.31-1.56-.72-3.1-1.07-4.65-.76-3.09-1.39-6.2-2.09-9.29s-1.52-6.15-2.27-9.22c-1.37-6.18-3.12-12.25-4.48-18.44-.76-3.07-1.6-6.12-2.41-9.19-.43-1.53-.82-3.06-1.27-4.58l-1.41-4.54-1.44-4.54-.71-2.27-.79-2.24-3.18-9-3.46-8.88c-1.17-3-2.47-5.86-3.69-8.8a304.62,304.62,0,0,0-17-34.18l.51-.34a279.48,279.48,0,0,1,19.27,33.24c1.37,2.89,2.82,5.76,4.14,8.69l3.92,8.79,3.65,8.92.91,2.23.83,2.26,1.67,4.53,1.69,4.52c.54,1.51,1,3.05,1.54,4.57,1,3.06,2.09,6.1,3.06,9.17a169.68,169.68,0,0,1,4.63,18.77l.83,4.76c.26,1.59.62,3.16.77,4.77.35,3.21.75,6.41,1,9.62.13,1.6.37,3.19.41,4.81l.13,4.83c.05,3.23.1,6.44,0,9.66Z" transform="translate(-6822.11 -6851.98)"/><path class="cls-3" d="M7386.86,7086a129.74,129.74,0,0,1,1.49-13.17c.45-2.16,1-4.3,1.54-6.45s1.08-4.3,1.81-6.39,1.55-4.15,2.4-6.2c.42-1,.87-2,1.3-3.07s1.05-2,1.57-2.94l3.24-5.82c1.17-1.89,2.41-3.74,3.59-5.62.6-.93,1.17-1.88,1.8-2.79l2-2.68,2-2.66c.33-.44.64-.9,1-1.32l1.1-1.26,2.2-2.5c.75-.81,1.43-1.69,2.25-2.44,1.61-1.53,3.14-3.13,4.81-4.59a78.28,78.28,0,0,1,10.66-7.86,47.34,47.34,0,0,1,12-5.47l.16.58a51.59,51.59,0,0,0-11.11,6.45,75.46,75.46,0,0,0-9.6,8.51c-1.49,1.52-2.85,3.19-4.28,4.77-.73.77-1.32,1.67-2,2.51l-1.92,2.55-1,1.27c-.32.42-.59.89-.89,1.33l-1.75,2.68-1.74,2.67c-.55.91-1,1.87-1.56,2.8-1,1.87-2.06,3.72-3,5.63l-2.55,5.87-1.31,2.91c-.39,1-.76,2-1.16,3-.8,2-1.66,3.92-2.54,5.87-.48.95-.8,2-1.21,3l-1.19,3c-.81,2-1.65,4-2.53,6-1.48,4-3.08,8.08-5,12.09Z" transform="translate(-6822.11 -6851.98)"/><path class="cls-3" d="M7377.14,7086.06c-.12-2.87-.09-5.74-.08-8.61l.1-4.32.08-2.16.21-2.14c.27-2.86.62-5.71,1-8.57.19-1.43.34-2.86.61-4.28l.86-4.23c.6-2.82,1.22-5.63,1.91-8.43s1.74-5.5,2.66-8.23c.47-1.36.92-2.73,1.42-4.08l1.63-4,1.61-4c.55-1.33,1-2.69,1.65-4A198,198,0,0,1,7407,6988.7c.8-1.2,1.56-2.41,2.38-3.58l2.52-3.48c1.63-2.35,3.45-4.57,5.21-6.82a116.52,116.52,0,0,1,11.64-12.59l.41.45a153.66,153.66,0,0,0-19.56,27.61l-2.09,3.68c-.68,1.23-1.3,2.5-1.95,3.75-1.27,2.52-2.61,5-3.71,7.59l-1.76,3.84c-.58,1.28-1.21,2.54-1.7,3.86l-3.12,7.83c-1,2.62-1.82,5.33-2.7,8l-1.3,4c-.38,1.35-.72,2.72-1.08,4.07-.73,2.71-1.48,5.41-2.29,8.09-.65,2.73-1.37,5.44-2.1,8.15l-1.14,4c-.39,1.35-.64,2.74-1,4.1-.64,2.74-1.3,5.48-2,8.21l-.53,2.06-.43,2.07-.9,4.16c-.65,2.76-1.29,5.54-2.08,8.32Z" transform="translate(-6822.11 -6851.98)"/><path class="cls-3" d="M7364.19,7074.43c-.1-3.22,0-6.43,0-9.66l.14-4.83c0-1.62.28-3.21.4-4.82.29-3.2.69-6.4,1-9.61.14-1.61.51-3.18.76-4.77l.84-4.77a170,170,0,0,1,4.62-18.76c1-3.08,2.06-6.11,3.07-9.17.51-1.52,1-3.06,1.54-4.57l1.68-4.52,1.68-4.53.83-2.26.91-2.23,3.65-8.92,3.92-8.8c1.32-2.92,2.76-5.79,4.14-8.68a278.12,278.12,0,0,1,19.27-33.24l.51.34a303.77,303.77,0,0,0-17,34.18c-1.23,2.94-2.52,5.84-3.69,8.79l-3.46,8.88-3.18,9-.79,2.25-.72,2.27-1.43,4.54-1.42,4.54c-.44,1.52-.84,3-1.26,4.58-.81,3.06-1.66,6.12-2.42,9.19-1.35,6.19-3.1,12.26-4.47,18.44-.75,3.07-1.6,6.13-2.27,9.22s-1.33,6.19-2.09,9.29c-.36,1.54-.77,3.09-1.07,4.65l-.95,4.68c-.67,3.12-1.34,6.24-2.16,9.37Z" transform="translate(-6822.11 -6851.98)"/></g></svg>