<svg id="Ebene_1" data-name="Ebene 1" xmlns="http://www.w3.org/2000/svg" viewBox="0 0 200.7 200.7"><defs><style>.cls-1{opacity:0.22;}.cls-2{fill:#606368;}.cls-3{fill:#252a34;}.cls-4,.cls-5{fill:none;stroke:#333;stroke-linecap:round;stroke-miterlimit:10;}.cls-4{stroke-width:7.04px;}.cls-5{stroke-width:3.39px;}</style></defs><g class="cls-1"><ellipse class="cls-2" cx="18.79" cy="191.78" rx="78.79" ry="22.44"/><rect class="cls-2" x="-60" y="110.38" width="157.59" height="81.4"/><ellipse class="cls-3" cx="18.79" cy="110.38" rx="78.79" ry="22.44"/><ellipse class="cls-2" cx="182.21" cy="191.78" rx="78.79" ry="22.44"/><rect class="cls-2" x="103.41" y="110.38" width="157.59" height="81.4"/><ellipse class="cls-3" cx="182.21" cy="110.38" rx="78.79" ry="22.44"/><line class="cls-4" x1="-33.35" y1="-13.52" x2="30.83" y2="77.7"/><line class="cls-4" x1="224.77" y1="-13.52" x2="160.59" y2="77.7"/></g><ellipse class="cls-2" cx="61.21" cy="144.31" rx="37.88" ry="10.79"/><rect class="cls-2" x="23.33" y="105.17" width="75.77" height="39.14"/><ellipse class="cls-3" cx="61.21" cy="105.17" rx="37.88" ry="10.79"/><ellipse class="cls-2" cx="139.79" cy="144.31" rx="37.88" ry="10.79"/><rect class="cls-2" x="101.9" y="105.17" width="75.77" height="39.14"/><ellipse class="cls-3" cx="139.79" cy="105.17" rx="37.88" ry="10.79"/><line class="cls-5" x1="36.14" y1="45.6" x2="67" y2="89.46"/><line class="cls-5" x1="160.25" y1="45.6" x2="129.39" y2="89.46"/></svg>