<svg xmlns="http://www.w3.org/2000/svg" viewBox="0 0 200 200"><defs><style>.cls-1,.cls-2{fill:none;stroke:#333;stroke-linecap:round;stroke-miterlimit:10;}.cls-1{stroke-width:6.79px;opacity:0.22;}.cls-2{stroke-width:3.39px;}.cls-3{fill:#333;}</style></defs><g id="Ebene_2" data-name="Ebene 2"><path class="cls-1" d="M-46.56,66.25c18.39,0,18.39,68.2,36.78,68.2S8.6,66.25,27,66.25s18.39,68.2,36.78,68.2,18.38-68.2,36.76-68.2,18.39,68.2,36.78,68.2,18.39-68.2,36.78-68.2,18.4,68.2,36.79,68.2,18.39-68.2,36.79-68.2"/><path class="cls-2" d="M27.22,83.35c9.17,0,9.17,34,18.33,34s9.17-34,18.33-34,9.17,34,18.34,34,9.16-34,18.32-34,9.17,34,18.34,34,9.17-34,18.33-34,9.17,34,18.34,34,9.17-34,18.34-34"/><path class="cls-3" d="M100.62,156.18H95.7V132.4l-7.26,2.47v-4.15L100,126.47h.63Z"/></g></svg>