<svg xmlns="http://www.w3.org/2000/svg" viewBox="0 0 200 200"><defs><style>.cls-1,.cls-2{fill:none;stroke:#333;stroke-linecap:round;stroke-miterlimit:10;}.cls-1{stroke-width:6.79px;opacity:0.22;}.cls-2{stroke-width:3.39px;}.cls-3{fill:#333;}</style></defs><g id="Ebene_2" data-name="Ebene 2"><path class="cls-1" d="M-46.56,66.25c18.39,0,18.39,68.2,36.78,68.2S8.6,66.25,27,66.25s18.39,68.2,36.78,68.2,18.38-68.2,36.76-68.2,18.39,68.2,36.78,68.2,18.39-68.2,36.78-68.2,18.4,68.2,36.79,68.2,18.39-68.2,36.79-68.2"/><path class="cls-2" d="M27.22,83.35c9.17,0,9.17,34,18.33,34s9.17-34,18.33-34,9.17,34,18.34,34,9.16-34,18.32-34,9.17,34,18.34,34,9.17-34,18.33-34,9.17,34,18.34,34,9.17-34,18.34-34"/><path class="cls-3" d="M107.14,156.18H87.24v-3.39L97.1,142a24.48,24.48,0,0,0,3-4,6.45,6.45,0,0,0,.9-3.2,4.85,4.85,0,0,0-1.19-3.42,4.14,4.14,0,0,0-3.2-1.3,4.74,4.74,0,0,0-3.72,1.47,5.74,5.74,0,0,0-1.32,4H86.67a9.71,9.71,0,0,1,1.23-4.87,8.46,8.46,0,0,1,3.52-3.36,11.16,11.16,0,0,1,5.27-1.2,10,10,0,0,1,6.8,2.16,7.53,7.53,0,0,1,2.49,6,10.09,10.09,0,0,1-1.25,4.65,26.48,26.48,0,0,1-4.09,5.52l-7.24,7.75h13.74Z"/></g></svg>