<svg xmlns="http://www.w3.org/2000/svg" viewBox="0 0 200.7 200.7"><defs><style>.cls-1{opacity:0.22;}.cls-2,.cls-3{fill:none;stroke:#333;stroke-linecap:round;stroke-miterlimit:10;}.cls-2{stroke-width:17.79px;}.cls-3{stroke-width:9.7px;}</style></defs><g id="Ebene_5" data-name="Ebene 5"><g class="cls-1"><path class="cls-2" d="M-73.13,189.91c91.28,0,193.47-193.47,193.47-193.47S114.87,187,146.39,187"/><path class="cls-2" d="M-181.75,189.91C-90.47,189.91,11.72-3.56,11.72-3.56S6.25,187,37.77,187"/><path class="cls-2" d="M146.27,189.91c91.29,0,193.48-193.47,193.48-193.47S334.28,187,365.79,187"/><path class="cls-2" d="M37.65,189.91c91.29,0,193.47-193.47,193.47-193.47S225.66,187,257.17,187"/></g><path class="cls-3" d="M2,145.93c49.78,0,105.5-105.5,105.5-105.5s-3,103.91,14.21,103.91"/><path class="cls-3" d="M-57.27,145.93c49.78,0,105.5-105.5,105.5-105.5s-3,103.91,14.21,103.91"/><path class="cls-3" d="M121.6,145.93c49.78,0,105.5-105.5,105.5-105.5s-3,103.91,14.21,103.91"/><path class="cls-3" d="M62.37,145.93c49.78,0,105.5-105.5,105.5-105.5s-3,103.91,14.21,103.91"/></g></svg>