<svg xmlns="http://www.w3.org/2000/svg" viewBox="0 0 200.7 200.7"><defs><style>.cls-1{opacity:0.22;}.cls-2{fill:#252a34;}.cls-3{fill:#495260;}.cls-4,.cls-5,.cls-6,.cls-7{fill:none;stroke-linecap:round;stroke-miterlimit:10;}.cls-4,.cls-6{stroke:#333;}.cls-4,.cls-5{stroke-width:6.46px;}.cls-5,.cls-7{stroke:#fff;}.cls-6,.cls-7{stroke-width:3.39px;}</style></defs><g id="Ebene_4" data-name="Ebene 4"><g class="cls-1"><circle class="cls-2" cx="100.35" cy="98.2" r="72.94"/><circle class="cls-3" cx="100.35" cy="98.2" r="41.81"/><line class="cls-4" x1="100.35" y1="-6.56" x2="100.35" y2="13.38"/><line class="cls-4" x1="46.9" y1="7.77" x2="56.86" y2="25.03"/><line class="cls-4" x1="7.77" y1="46.9" x2="25.03" y2="56.86"/><line class="cls-4" x1="-6.56" y1="100.35" x2="13.38" y2="100.35"/><line class="cls-4" x1="7.77" y1="153.81" x2="25.03" y2="143.84"/><line class="cls-4" x1="46.9" y1="192.94" x2="56.86" y2="175.67"/><line class="cls-4" x1="100.35" y1="207.26" x2="100.35" y2="187.33"/><line class="cls-4" x1="153.81" y1="192.94" x2="143.84" y2="175.67"/><line class="cls-4" x1="192.94" y1="153.81" x2="175.67" y2="143.84"/><line class="cls-4" x1="207.26" y1="100.35" x2="187.33" y2="100.35"/><line class="cls-5" x1="133.64" y1="100.35" x2="113.71" y2="100.35"/><line class="cls-4" x1="192.94" y1="46.9" x2="175.67" y2="56.86"/><line class="cls-4" x1="153.81" y1="7.77" x2="143.84" y2="25.03"/></g><circle class="cls-2" cx="100.35" cy="99.22" r="38.22"/><circle class="cls-3" cx="100.35" cy="99.22" r="21.91"/><line class="cls-6" x1="100.35" y1="44.33" x2="100.35" y2="54.78"/><line class="cls-6" x1="72.34" y1="51.84" x2="77.56" y2="60.88"/><line class="cls-6" x1="51.84" y1="72.34" x2="60.88" y2="77.56"/><line class="cls-6" x1="44.33" y1="100.35" x2="54.78" y2="100.35"/><line class="cls-6" x1="51.84" y1="128.36" x2="60.88" y2="123.14"/><line class="cls-6" x1="72.34" y1="148.87" x2="77.56" y2="139.82"/><line class="cls-6" x1="100.35" y1="156.37" x2="100.35" y2="145.93"/><line class="cls-6" x1="128.36" y1="148.87" x2="123.14" y2="139.82"/><line class="cls-6" x1="148.87" y1="128.36" x2="139.82" y2="123.14"/><line class="cls-6" x1="156.37" y1="100.35" x2="145.93" y2="100.35"/><line class="cls-7" x1="117.79" y1="100.35" x2="107.35" y2="100.35"/><line class="cls-6" x1="148.87" y1="72.34" x2="139.82" y2="77.56"/><line class="cls-6" x1="128.36" y1="51.84" x2="123.14" y2="60.88"/></g></svg>